<?xml version="1.0" encoding="UTF-8"?>
<svg id="a" data-name="Layer 1" xmlns="http://www.w3.org/2000/svg" width="938.67" height="725.33" viewBox="0 0 938.67 725.33">
  <path d="M224,522.33c57,54,208,107,315,36,70,16,134,22,165-64,66-2,166.78,6.11,225.89-89.45,5.7-18.85,8.78-38.84,8.78-59.55,0-113.4-91.93-205.33-205.33-205.33-14.31,0-28.28,1.47-41.77,4.26-25.43-28.32-60.6-47.7-100.24-52.87C571.56,38.03,520.23,0,460,0c-76.94,0-139.37,62.06-139.99,138.85-22.29-10.32-47.12-16.1-73.3-16.1-96.44,0-174.62,78.18-174.62,174.62,0,21.43,3.87,41.95,10.93,60.92-39.25,17.22-68.99,52.1-79.18,94.58,19.11,48.18,73.22,122.44,220.16,69.46Z" style="fill: #fff;"/>
  <path d="M138.67,624c28.33,0,54.67-8.5,76.62-23.08,32.57,73.3,106,124.42,191.38,124.42,67.2,0,126.99-31.67,165.3-80.89,17.2,12.31,38.27,19.56,61.04,19.56,57.99,0,105-47.01,105-105,0-2.82-.11-5.62-.33-8.39,90.79-1.88,167.09-62.69,192.22-145.72-59.11,95.55-159.89,87.45-225.89,89.45-31,86-95,80-165,64-107,71-258,18-315-36-146.93,52.98-201.05-21.29-220.16-69.46-2.5,10.41-3.84,21.28-3.84,32.46,0,76.58,62.08,138.67,138.67,138.67Z" style="fill: #f0f0f0;"/>
</svg>