<?xml version="1.0" encoding="UTF-8"?>
<svg id="a" data-name="Layer 1" xmlns="http://www.w3.org/2000/svg" width="928.14" height="582.44" viewBox="0 0 928.14 582.44">
  <path d="M201.22,452c29.33,56,135.55,75.33,209.94,21.33,32.39,15,80.39,39,156.39-22,0,0,157.37,75.83,204.37-68.17,45-4,97.3-.5,153.95-57.77,1.48-7.79,2.27-15.83,2.27-24.06,0-70.63-57.26-127.89-127.89-127.89-4.17,0-8.29.21-12.36.6C781.81,76.9,701.11,0,602.44,0c-71.58,0-133.69,40.47-164.74,99.77-13.23-4.18-27.32-6.43-41.93-6.43-59.2,0-109.76,36.96-129.88,89.07-18.33-14.89-41.69-23.82-67.14-23.82-58.85,0-106.56,47.71-106.56,106.56,0,9.32,1.2,18.35,3.45,26.97-42.11,10.94-75.79,42.8-89.27,83.83,15.36,46.8,63.42,138.64,194.86,76.07ZM583.75,370.76c-1.19,1.38-2.35,2.78-3.49,4.21-1.12-1.72-2.29-3.4-3.51-5.05,2.32.32,4.65.61,7,.84Z" style="fill: #fff;"/>
  <path d="M127.89,543.78c26.17,0,50.5-7.87,70.76-21.35,27.29,27.32,65,44.21,106.65,44.21,46.21,0,87.56-20.8,115.21-53.54,18.79,16.6,43.47,26.68,70.52,26.68,28.75,0,54.83-11.39,74-29.9,20.63,42.93,64.52,72.56,115.33,72.56,70.63,0,127.89-57.26,127.89-127.89,0-8.72-.88-17.23-2.54-25.46,59.95-2.52,109.23-46.31,120.16-103.71-56.65,57.27-108.95,53.77-153.95,57.77-47,144-204.37,68.17-204.37,68.17-76,61-124,37-156.39,22-74.39,54-180.61,34.67-209.94-21.33-131.44,62.57-179.5-29.27-194.86-76.07-4.13,12.57-6.37,26-6.37,39.96,0,70.63,57.26,127.89,127.89,127.89Z" style="fill: #f0f0f0;"/>
</svg>