<?xml version="1.0" encoding="UTF-8"?>
<svg id="a" data-name="Layer 1" xmlns="http://www.w3.org/2000/svg" width="804" height="504" viewBox="0 0 804 504">
  <path d="M268,362.67s76,66,154,0c0,0,110,62,184-34,0,0,73.35,77.04,191.67,1.52h0c4.12-9.6,6.33-19.72,6.33-30.18,0-40.59-33.17-76.1-82.72-95.55.47-4.09.72-8.24.72-12.45,0-59.65-48.35-108-108-108-10.54,0-20.73,1.52-30.37,4.33C549.49,35.2,489.85,0,422,0c-42.34,0-81.48,13.72-113.22,36.94C284.84,14.05,252.4,0,216.67,0,143.03,0,83.33,59.7,83.33,133.33c0,7.63.65,15.1,1.88,22.38C34.32,184.29,0,238.2,0,300c0,5.18.25,10.31.73,15.37,38.3,43.26,125.68,110.22,267.27,47.29Z" style="fill: #fff;"/>
  <path d="M168.67,466c26.75,0,52.05-6.14,74.52-17.05,18.52,32.86,53.74,55.05,94.14,55.05s73.63-20.95,92.54-52.29c19.8,24.57,50.13,40.29,84.13,40.29,50.37,0,92.68-34.48,104.63-81.12,5.06.3,10.19.46,15.37.46,77.91,0,143.58-34.33,163.67-81.15h0c-118.33,75.52-191.67-1.52-191.67-1.52-74,96-184,34-184,34-78,66-154,0-154,0-141.59,62.93-228.98-4.03-267.27-47.29,7.88,84.47,80.06,150.63,167.94,150.63Z" style="fill: #f0f0f0;"/>
</svg>