<?xml version="1.0" encoding="UTF-8"?>
<svg xmlns="http://www.w3.org/2000/svg" width="824.74" height="701.89" viewBox="0 0 824.74 701.89">
  <g id="a" data-name="Head Border">
    <path id="b" data-name="HeadBG" d="M586.87,93.04c1.13-4.38,1.73-8.98,1.73-13.72,0-30.27-24.54-54.8-54.8-54.8-16.08,0-30.54,6.92-40.56,17.95-24.66-4.75-52.13-4.8-81.1-4.8-28.97,0-56.44.05-81.1,4.8-10.02-11.03-24.49-17.95-40.56-17.95-30.27,0-54.8,24.54-54.8,54.8,0,4.74.6,9.33,1.73,13.72-23.02,18.63-40.53,40.02-40.53,66.52,0,126.27,107.91,153.35,215.27,154.1,107.36-.75,215.27-27.83,215.27-154.1,0-26.5-17.51-47.88-40.53-66.52Z" style="fill: #63e57f; stroke: #32703d; stroke-miterlimit: 10; stroke-width: 20px;"/>
    <circle cx="290.47" cy="79.33" r="69.33" style="fill: #63e57f; stroke: #32703d; stroke-miterlimit: 10; stroke-width: 20px;"/>
    <circle cx="533.8" cy="79.33" r="69.33" style="fill: #63e57f; stroke: #32703d; stroke-miterlimit: 10; stroke-width: 20px;"/>
  </g>
  <g id="c" data-name="Body Border">
    <path d="M671.04,378.02c-38.19-263.46-479.65-263.46-517.82,0,9.24,319.41,132.21,229.48,258.24,237.77,126.69-8.54,250.22,82.43,259.58-237.77Z" style="fill: #63e57f; stroke: #32703d; stroke-miterlimit: 10; stroke-width: 20px;"/>
  </g>
  <g id="d" data-name="Head">
    <g id="e" data-name="Head">
      <g id="f" data-name="Head and Eyes">
        <g>
          <path id="g" data-name="Head" d="M538.08,59.41c-33.85-21.63-77.82-21.74-125.95-21.74-48.12,0-92.1.11-125.95,21.74-41.51,26.53-89.32,56.35-89.32,100.15,0,126.27,107.91,153.35,215.27,154.1,107.36-.75,215.27-27.83,215.27-154.1,0-43.79-47.81-73.62-89.32-100.15Z" style="fill: #63e57f;"/>
          <g id="h" data-name="Eyes">
            <g id="i" data-name="Left Eye">
              <circle cx="290.47" cy="79.33" r="69.33" style="fill: #63e57f;"/>
              <circle cx="290.47" cy="79.33" r="54.8" style="fill: #d4ffcc;"/>
              <circle cx="290.47" cy="79.33" r="42.04"/>
              <circle cx="279.83" cy="63.54" r="5.48" style="fill: #fff;"/>
            </g>
            <g id="j" data-name="Right Eye">
              <circle cx="533.8" cy="79.33" r="69.33" style="fill: #63e57f;"/>
              <circle cx="533.8" cy="79.33" r="54.8" style="fill: #d4ffcc;"/>
              <circle cx="533.8" cy="79.33" r="42.04"/>
              <circle cx="521.41" cy="65.3" r="5.48" style="fill: #fff;"/>
            </g>
          </g>
        </g>
      </g>
      <g id="k" data-name="Mouth">
        <path d="M412.13,190.84s62.7,46.88,126.34-21.75" style="fill: none; stroke: #32703d; stroke-linecap: round; stroke-miterlimit: 10; stroke-width: 10px;"/>
        <path d="M412.13,190.84s-62.7,46.88-126.34-21.75" style="fill: none; stroke: #32703d; stroke-linecap: round; stroke-miterlimit: 10; stroke-width: 10px;"/>
      </g>
      <g id="l" data-name="Blush">
        <ellipse cx="238.56" cy="165.59" rx="24.51" ry="17.43" style="fill: #ffe9e9;"/>
        <ellipse cx="588.6" cy="165.59" rx="24.51" ry="17.43" style="fill: #ffe9e9;"/>
      </g>
    </g>
  </g>
  <g id="m" data-name="Body">
    <path d="M671.04,378.02c-9.92-68.46-47.07-119.13-97.3-152.01-46.42-30.39-104.01,3.88-161.61,3.88-57.59,0-115.17-34.28-161.59-3.9-50.24,32.88-87.4,83.56-97.31,152.03,9.24,319.41,132.21,229.48,258.24,237.77,126.69-8.54,250.22,82.43,259.58-237.77Z" style="fill: #63e57f;"/>
    <path d="M496.91,415.06c-3.94-179.01-160.63-179.45-166.82,0-4.02,116.43-12.69,177.16,3.98,197.99,12.21,15.26,40.08,5.23,77.97,5.22,37.67,0,78.71,9.85,90.69-8.78,14.24-22.14-3.34-82.32-5.81-194.44Z" style="fill: #d4ffcc;"/>
  </g>
  <g id="n" data-name="Right Hindleg">
    <path d="M659.12,396.89s52.45-95.49,101.9-11.54c39.12,66.42-6.5,135.58-27.27,161.57-2.83,3.54.25,8.69,4.71,7.85,23.95-4.51,69.68-11.13,73.84,2.86,5.69,19.15-42.49,27.43-58.18,29.6-.53.07-.5.84.03.88,16.28,1.14,67.78,6.76,66.81,32.22-1.12,29.39-58.19,9.31-79.2.91-2.22-.89-4.27,1.61-2.96,3.61,9.63,14.75,28.81,48.88,5.52,56.05-29.9,9.2-76.92-70.92-76.92-70.92,0,0-38.96-15-63.81-1.28" style="fill: #63e57f; stroke: #32703d; stroke-linecap: round; stroke-miterlimit: 10; stroke-width: 7.5px;"/>
    <path d="M165.62,396.89s-52.45-95.49-101.9-11.54c-39.12,66.42,6.5,135.58,27.27,161.57,2.83,3.54-.25,8.69-4.71,7.85-23.95-4.51-69.68-11.13-73.84,2.86-5.69,19.15,42.49,27.43,58.18,29.6.53.07.5.84-.03.88-16.28,1.14-67.78,6.76-66.81,32.22,1.12,29.39,58.19,9.31,79.2.91,2.22-.89,4.27,1.61,2.96,3.61-9.63,14.75-28.81,48.88-5.52,56.05,29.9,9.2,76.92-70.92,76.92-70.92,0,0,38.96-15,63.81-1.28" style="fill: #63e57f; stroke: #32703d; stroke-linecap: round; stroke-miterlimit: 10; stroke-width: 7.5px;"/>
  </g>
  <g id="o" data-name="Right Foreleg">
    <path d="M501.79,454.47s4.07,107.58-11.58,138.25-68.87,54.67-51.59,62.67,52.28-1.67,52.28-1.67c0,0,10,46.67,27,44.33s26-46,26-46c0,0,27.33,20,45.33,16.33,18-3.67-24.67-56.33-24.67-56.33,0,0,37-72,54-76.67" style="fill: #63e57f; stroke: #32703d; stroke-linecap: round; stroke-miterlimit: 10; stroke-width: 7.5px;"/>
  </g>
  <g id="q" data-name="Left Foreleg">
    <path d="M325.22,454.47s-4.07,107.58,11.58,138.25,68.87,54.67,51.59,62.67c-17.28,8-52.28-1.67-52.28-1.67,0,0-10,46.67-27,44.33-17-2.33-26-46-26-46,0,0-27.33,20-45.33,16.33-18-3.67,24.67-56.33,24.67-56.33,0,0-37-72-54-76.67" style="fill: #63e57f; stroke: #32703d; stroke-linecap: round; stroke-miterlimit: 10; stroke-width: 7.5px;"/>
  </g>
</svg>