<?xml version="1.0" encoding="UTF-8"?>
<svg xmlns="http://www.w3.org/2000/svg" width="682.75" height="704.53" viewBox="0 0 682.75 704.53">
  <g id="a" data-name="Head Border">
    <path id="b" data-name="HeadBG" d="M516.64,93.04c1.13-4.38,1.73-8.98,1.73-13.72,0-30.27-24.54-54.8-54.8-54.8-16.08,0-30.54,6.92-40.56,17.95-24.66-4.75-52.13-4.8-81.1-4.8-28.97,0-56.44.05-81.1,4.8-10.02-11.03-24.49-17.95-40.56-17.95-30.27,0-54.8,24.54-54.8,54.8,0,4.74.6,9.33,1.73,13.72-23.02,18.63-40.53,40.02-40.53,66.52,0,126.27,107.91,153.35,215.27,154.1,107.36-.75,215.27-27.83,215.27-154.1,0-26.5-17.51-47.88-40.53-66.52Z" style="fill: #63e57f; stroke: #32703d; stroke-miterlimit: 10; stroke-width: 20px;"/>
    <circle cx="220.23" cy="79.33" r="69.33" style="fill: #63e57f; stroke: #32703d; stroke-miterlimit: 10; stroke-width: 20px;"/>
    <circle cx="463.56" cy="79.33" r="69.33" style="fill: #63e57f; stroke: #32703d; stroke-miterlimit: 10; stroke-width: 20px;"/>
  </g>
  <g id="c" data-name="Body Border">
    <path d="M534.69,378.02c-31.16-263.46-355.63-266.45-386.78-2.99,7.54,319.41,90.58,232.47,193.43,240.76,103.4-8.54,185.7,82.43,193.34-237.77Z" style="fill: #63e57f; stroke: #32703d; stroke-miterlimit: 10; stroke-width: 20px;"/>
  </g>
  <g id="d" data-name="Head">
    <g id="e" data-name="Head">
      <g id="f" data-name="Head and Eyes">
        <g>
          <path id="g" data-name="Head" d="M467.85,59.41c-33.85-21.63-77.82-21.74-125.95-21.74-48.12,0-92.1.11-125.95,21.74-41.51,26.53-89.32,56.35-89.32,100.15,0,126.27,107.91,153.35,215.27,154.1,107.36-.75,215.27-27.83,215.27-154.1,0-43.79-47.81-73.62-89.32-100.15Z" style="fill: #63e57f;"/>
          <g id="h" data-name="Eyes">
            <g id="i" data-name="Left Eye">
              <circle cx="220.23" cy="79.33" r="69.33" style="fill: #63e57f;"/>
              <circle cx="220.23" cy="79.33" r="54.8" style="fill: #d4ffcc;"/>
              <circle cx="220.23" cy="79.33" r="42.04"/>
              <circle cx="209.6" cy="63.54" r="5.48" style="fill: #fff;"/>
            </g>
            <g id="j" data-name="Right Eye">
              <circle cx="463.56" cy="79.33" r="69.33" style="fill: #63e57f;"/>
              <circle cx="463.56" cy="79.33" r="54.8" style="fill: #d4ffcc;"/>
              <circle cx="463.56" cy="79.33" r="42.04"/>
              <circle cx="451.18" cy="65.3" r="5.48" style="fill: #fff;"/>
            </g>
          </g>
        </g>
      </g>
      <g id="k" data-name="Mouth">
        <path d="M341.9,190.84s62.7,46.88,126.34-21.75" style="fill: none; stroke: #32703d; stroke-linecap: round; stroke-miterlimit: 10; stroke-width: 10px;"/>
        <path d="M341.9,190.84s-62.7,46.88-126.34-21.75" style="fill: none; stroke: #32703d; stroke-linecap: round; stroke-miterlimit: 10; stroke-width: 10px;"/>
      </g>
      <g id="l" data-name="Blush">
        <ellipse cx="168.33" cy="165.59" rx="24.51" ry="17.43" style="fill: #ffe9e9;"/>
        <ellipse cx="518.37" cy="165.59" rx="24.51" ry="17.43" style="fill: #ffe9e9;"/>
      </g>
    </g>
  </g>
  <g id="m" data-name="Body">
    <path d="M534.69,378.02c-8.1-68.46-22.68-99.87-57.44-138.99-26.07-29.33-88.35-9.14-135.35-9.14-47,0-88.45-21.91-126.34,8.47-41,32.88-59.55,71.19-67.65,139.66,7.54,319.41,90.58,229.48,193.43,237.77,103.4-8.54,185.7,82.43,193.34-237.77Z" style="fill: #63e57f;"/>
    <path d="M411.09,415.06c-3.22-179.01-131.1-179.45-136.15,0-3.28,116.43-10.35,177.16,3.24,197.99,9.96,15.26,32.71,5.23,63.63,5.22,30.74,0,64.24,9.85,74.01-8.78,11.62-22.14-2.73-82.32-4.74-194.44Z" style="fill: #d4ffcc;"/>
  </g>
  <g id="n" data-name="Right Hindleg">
    <path d="M531.5,410.78s37.5-95.04,86.95-11.09c39.12,66.42-19.13,128.43-39.9,154.42-2.83,3.54,5.54,9.28,10,8.44,23.95-4.51,77.03-4.57,81.19,9.41,5.27,17.73-42.27,19.7-63.79,19.7-1.03,0-1.19,1.49-.18,1.69,22.23,4.55,79.7,18.68,72.63,41.31-8.27,26.47-60.81-7.13-81.82-15.53-2.22-.89-4.75.55-3.44,2.56,9.63,14.75,43.95,48.84,20.67,56-29.9,9.2-71.33-73-71.33-73,0,0-24.33-33-50-.33" style="fill: #63e57f; stroke: #32703d; stroke-linecap: round; stroke-miterlimit: 10; stroke-width: 7.5px;"/>
  </g>
  <g id="o" data-name="Right Foreleg">
    <path d="M417.56,457.14s4.07,107.58-11.58,138.25c-15.65,30.67-68.87,54.67-51.59,62.67s60.83-19.49,60.83-19.49c0,0,1.45,64.49,18.45,62.16s20.57-60.83,20.57-60.83c0,0,32.77,34.83,50.77,31.16,18-3.67-35.11-65.83-35.11-65.83,0,0,17.48-88,34.48-92.67" style="fill: #63e57f; stroke: #32703d; stroke-linecap: round; stroke-miterlimit: 10; stroke-width: 7.5px;"/>
  </g>
  <g id="p" data-name="Left Hindleg">
    <path d="M151.25,410.78s-37.5-95.04-86.95-11.09c-39.12,66.42,19.13,128.43,39.9,154.42,2.83,3.54-5.54,9.28-10,8.44-23.95-4.51-77.03-4.57-81.19,9.41-5.27,17.73,42.27,19.7,63.79,19.7,1.03,0,1.19,1.49.18,1.69-22.23,4.55-79.7,18.68-72.63,41.31,8.27,26.47,60.81-7.13,81.82-15.53,2.22-.89,4.75.55,3.44,2.56-9.63,14.75-43.95,48.84-20.67,56,29.9,9.2,71.33-73,71.33-73,0,0,24.33-33,50-.33" style="fill: #63e57f; stroke: #32703d; stroke-linecap: round; stroke-miterlimit: 10; stroke-width: 7.5px;"/>
  </g>
  <g id="q" data-name="Left Foreleg">
    <path d="M274.57,457.14s-4.07,107.58,11.58,138.25,68.87,54.67,51.59,62.67c-17.28,8-60.83-19.49-60.83-19.49,0,0-1.45,64.49-18.45,62.16s-20.57-60.83-20.57-60.83c0,0-32.77,34.83-50.77,31.16-18-3.67,35.11-65.83,35.11-65.83,0,0-17.48-88-34.48-92.67" style="fill: #63e57f; stroke: #32703d; stroke-linecap: round; stroke-miterlimit: 10; stroke-width: 7.5px;"/>
  </g>
</svg>