<?xml version="1.0" encoding="UTF-8"?>
<svg xmlns="http://www.w3.org/2000/svg" width="886.33" height="701.89" viewBox="0 0 886.33 701.89">
  <g id="a" data-name="Head Border">
    <path id="b" data-name="HeadBG" d="M614.34,93.04c1.13-4.38,1.73-8.98,1.73-13.72,0-30.27-24.54-54.8-54.8-54.8-16.08,0-30.54,6.92-40.56,17.95-24.66-4.75-52.13-4.8-81.1-4.8-28.97,0-56.44.05-81.1,4.8-10.02-11.03-24.49-17.95-40.56-17.95-30.27,0-54.8,24.54-54.8,54.8,0,4.74.6,9.33,1.73,13.72-23.02,18.63-40.53,40.02-40.53,66.52,0,126.27,107.91,153.35,215.27,154.1,107.36-.75,215.27-27.83,215.27-154.1,0-26.5-17.51-47.88-40.53-66.52Z" style="fill: #63e57f; stroke: #32703d; stroke-miterlimit: 10; stroke-width: 20px;"/>
    <circle cx="317.94" cy="79.33" r="69.33" style="fill: #63e57f; stroke: #32703d; stroke-miterlimit: 10; stroke-width: 20px;"/>
    <circle cx="561.27" cy="79.33" r="69.33" style="fill: #63e57f; stroke: #32703d; stroke-miterlimit: 10; stroke-width: 20px;"/>
  </g>
  <g id="c" data-name="Body Border">
    <path d="M761.98,380.35c-47.55-263.46-597.25-263.46-644.77,0,11.5,319.41,164.62,229.48,321.55,237.77,157.75-8.54,311.57,82.43,323.22-237.77Z" style="fill: #63e57f; stroke: #32703d; stroke-miterlimit: 10; stroke-width: 20px;"/>
  </g>
  <g id="d" data-name="Head">
    <g id="e" data-name="Head">
      <g id="f" data-name="Head and Eyes">
        <g>
          <path id="g" data-name="Head" d="M565.55,59.41c-33.85-21.63-77.82-21.74-125.95-21.74-48.12,0-92.1.11-125.95,21.74-41.51,26.53-89.32,56.35-89.32,100.15,0,126.27,107.91,153.35,215.27,154.1,107.36-.75,215.27-27.83,215.27-154.1,0-43.79-47.81-73.62-89.32-100.15Z" style="fill: #63e57f;"/>
          <g id="h" data-name="Eyes">
            <g id="i" data-name="Left Eye">
              <circle cx="317.94" cy="79.33" r="69.33" style="fill: #63e57f;"/>
              <circle cx="317.94" cy="79.33" r="54.8" style="fill: #d4ffcc;"/>
              <circle cx="317.94" cy="79.33" r="42.04"/>
              <circle cx="307.3" cy="63.54" r="5.48" style="fill: #fff;"/>
            </g>
            <g id="j" data-name="Right Eye">
              <circle cx="561.27" cy="79.33" r="69.33" style="fill: #63e57f;"/>
              <circle cx="561.27" cy="79.33" r="54.8" style="fill: #d4ffcc;"/>
              <circle cx="561.27" cy="79.33" r="42.04"/>
              <circle cx="548.88" cy="65.3" r="5.48" style="fill: #fff;"/>
            </g>
          </g>
        </g>
      </g>
      <g id="k" data-name="Mouth">
        <path d="M439.6,190.84s62.7,46.88,126.34-21.75" style="fill: none; stroke: #32703d; stroke-linecap: round; stroke-miterlimit: 10; stroke-width: 10px;"/>
        <path d="M439.6,190.84s-62.7,46.88-126.34-21.75" style="fill: none; stroke: #32703d; stroke-linecap: round; stroke-miterlimit: 10; stroke-width: 10px;"/>
      </g>
      <g id="l" data-name="Blush">
        <ellipse cx="266.03" cy="165.59" rx="24.51" ry="17.43" style="fill: #ffe9e9;"/>
        <ellipse cx="616.07" cy="165.59" rx="24.51" ry="17.43" style="fill: #ffe9e9;"/>
      </g>
    </g>
  </g>
  <g id="m" data-name="Body">
    <path d="M761.98,380.35c-12.35-68.46-58.61-119.13-121.16-152.01-57.8-30.39-129.52,3.88-201.23,3.88-71.71,0-143.41-34.28-201.21-3.9-62.56,32.88-108.82,83.56-121.17,152.03,11.5,319.41,164.62,229.48,321.55,237.77,157.75-8.54,311.57,82.43,323.22-237.77Z" style="fill: #63e57f;"/>
    <path d="M554.22,415.06c-5.34-179.01-217.57-179.45-225.96,0-5.44,116.43-17.19,177.16,5.38,197.99,16.54,15.26,54.29,5.23,105.61,5.22,51.02,0,106.61,9.85,122.83-8.78,19.29-22.14-4.53-82.32-7.87-194.44Z" style="fill: #d4ffcc;"/>
  </g>
  <g id="n" data-name="Right Hindleg">
    <path d="M707.61,393.2s65.55-83.95,115,0c39.12,66.42-6.5,135.58-27.27,161.57-2.83,3.54.25,8.69,4.71,7.85,23.95-4.51,69.68-11.13,73.84,2.86,5.69,19.15-42.49,27.43-58.18,29.6-.53.07-.5.84.03.88,16.28,1.14,67.78,6.76,66.81,32.22-1.12,29.39-58.19,9.31-79.2.91-2.22-.89-4.27,1.61-2.96,3.61,9.63,14.75,28.81,48.88,5.52,56.05-29.9,9.2-76.92-70.92-76.92-70.92,0,0-49.5-6.84-63.81-1.28" style="fill: #63e57f; stroke: #32703d; stroke-linecap: round; stroke-miterlimit: 10; stroke-width: 7.5px;"/>
  </g>
  <g id="o" data-name="Right Foreleg">
    <path d="M555.03,454.04s4.07,107.58-11.58,138.25c-15.65,30.67-68.87,54.67-51.59,62.67s52.28-1.67,52.28-1.67c0,0,10,46.67,27,44.33s26-46,26-46c0,0,27.33,20,45.33,16.33,18-3.67-24.67-56.33-24.67-56.33,0,0,37-72,54-76.67" style="fill: #63e57f; stroke: #32703d; stroke-linecap: round; stroke-miterlimit: 10; stroke-width: 7.5px;"/>
  </g>
  <g id="p" data-name="Left Hindleg">
    <path d="M178.72,397.41s-65.55-83.95-115,0c-39.12,66.42,6.5,135.58,27.27,161.57,2.83,3.54-.25,8.69-4.71,7.85-23.95-4.51-69.68-11.13-73.84,2.86-5.69,19.15,42.49,27.43,58.18,29.6.53.07.5.84-.03.88-16.28,1.14-67.78,6.76-66.81,32.22,1.12,29.39,58.19,9.31,79.2.91,2.22-.89,4.27,1.61,2.96,3.61-9.63,14.75-28.81,48.88-5.52,56.05,29.9,9.2,76.92-70.92,76.92-70.92,0,0,46.01-10.15,61.98-3.5" style="fill: #63e57f; stroke: #32703d; stroke-linecap: round; stroke-miterlimit: 10; stroke-width: 7.5px;"/>
  </g>
  <g id="q" data-name="Left Foreleg">
    <path d="M320.69,454.47s-4.07,107.58,11.58,138.25,68.87,54.67,51.59,62.67c-17.28,8-52.28-1.67-52.28-1.67,0,0-10,46.67-27,44.33-17-2.33-26-46-26-46,0,0-27.33,20-45.33,16.33-18-3.67,24.67-56.33,24.67-56.33,0,0-37-72-54-76.67" style="fill: #63e57f; stroke: #32703d; stroke-linecap: round; stroke-miterlimit: 10; stroke-width: 7.5px;"/>
  </g>
</svg>