<?xml version="1.0" encoding="UTF-8"?>
<svg xmlns="http://www.w3.org/2000/svg" width="581.32" height="713.34" viewBox="0 0 581.32 713.34">
  <g id="a" data-name="Head Border">
    <path id="b" data-name="HeadBG" d="M465.39,93.04c1.13-4.38,1.73-8.98,1.73-13.72,0-30.27-24.54-54.8-54.8-54.8-16.08,0-30.54,6.92-40.56,17.95-24.66-4.75-52.13-4.8-81.1-4.8-28.97,0-56.44.05-81.1,4.8-10.02-11.03-24.49-17.95-40.56-17.95-30.27,0-54.8,24.54-54.8,54.8,0,4.74.6,9.33,1.73,13.72-23.02,18.63-40.53,40.02-40.53,66.52,0,126.27,107.91,153.35,215.27,154.1,107.36-.75,215.27-27.83,215.27-154.1,0-26.5-17.51-47.88-40.53-66.52Z" style="fill: #63e57f; stroke: #32703d; stroke-miterlimit: 10; stroke-width: 20px;"/>
    <circle cx="168.99" cy="79.33" r="69.33" style="fill: #63e57f; stroke: #32703d; stroke-miterlimit: 10; stroke-width: 20px;"/>
    <circle cx="412.32" cy="79.33" r="69.33" style="fill: #63e57f; stroke: #32703d; stroke-miterlimit: 10; stroke-width: 20px;"/>
  </g>
  <g id="c" data-name="Body Border">
    <path d="M415.01,431.87c-8.62-60.98-39.03-125.9-45.62-177.35l-78.74-.43-78.74.43c-6.58,51.44-37,116.37-45.62,177.35-28.4,201,41.45,207.96,106.74,205.92,5.97-.19,11.77-.26,17.62-.26s11.65.07,17.62.26c65.29,2.04,135.14-4.92,106.74-205.92Z" style="fill: #63e57f; stroke: #32703d; stroke-miterlimit: 10; stroke-width: 20px;"/>
  </g>
  <g id="d" data-name="Head">
    <g id="e" data-name="Head">
      <g id="f" data-name="Head and Eyes">
        <g>
          <path id="g" data-name="Head" d="M416.6,59.41c-33.85-21.63-77.82-21.74-125.95-21.74-48.12,0-92.1.11-125.95,21.74-41.51,26.53-89.32,56.35-89.32,100.15,0,126.27,107.91,153.35,215.27,154.1,107.36-.75,215.27-27.83,215.27-154.1,0-43.79-47.81-73.62-89.32-100.15Z" style="fill: #63e57f;"/>
          <g id="h" data-name="Eyes">
            <g id="i" data-name="Left Eye">
              <circle cx="168.99" cy="79.33" r="69.33" style="fill: #63e57f;"/>
              <circle cx="168.99" cy="79.33" r="54.8" style="fill: #d4ffcc;"/>
              <circle cx="168.99" cy="79.33" r="42.04"/>
              <circle cx="158.36" cy="63.54" r="5.48" style="fill: #fff;"/>
            </g>
            <g id="j" data-name="Right Eye">
              <circle cx="412.32" cy="79.33" r="69.33" style="fill: #63e57f;"/>
              <circle cx="412.32" cy="79.33" r="54.8" style="fill: #d4ffcc;"/>
              <circle cx="412.32" cy="79.33" r="42.04"/>
              <circle cx="399.93" cy="65.3" r="5.48" style="fill: #fff;"/>
            </g>
          </g>
        </g>
      </g>
      <g id="k" data-name="Mouth">
        <path d="M290.65,190.84s62.7,46.88,126.34-21.75" style="fill: none; stroke: #32703d; stroke-linecap: round; stroke-miterlimit: 10; stroke-width: 10px;"/>
        <path d="M290.65,190.84s-62.7,46.88-126.34-21.75" style="fill: none; stroke: #32703d; stroke-linecap: round; stroke-miterlimit: 10; stroke-width: 10px;"/>
      </g>
      <g id="l" data-name="Blush">
        <ellipse cx="117.08" cy="165.59" rx="24.51" ry="17.43" style="fill: #ffe9e9;"/>
        <ellipse cx="467.12" cy="165.59" rx="24.51" ry="17.43" style="fill: #ffe9e9;"/>
      </g>
    </g>
  </g>
  <g id="m" data-name="Body">
    <path d="M415.01,431.87c-8.62-60.98-39.03-125.9-45.62-177.35l-78.74-.43-78.74.43c-6.58,51.44-37,116.37-45.62,177.35-28.4,201,41.45,207.96,106.74,205.92,5.97-.19,11.77-.26,17.62-.26s11.65.07,17.62.26c65.29,2.04,135.14-4.92,106.74-205.92Z" style="fill: #63e57f;"/>
    <path d="M346.44,467.44c-2.53-147.9-102.91-148.27-106.87,0-2.57,96.2-9.28,147.16,2.55,163.59,6.48,9,26.76,6.51,51.04,6.51,24.13,0,49.78,4.5,57.01-9.45,9.42-18.15-2.14-68.02-3.72-160.66Z" style="fill: #d4ffcc;"/>
  </g>
  <g id="n" data-name="Right Hindleg">
    <path d="M409.26,483.98s85.93-165.42,116.65-72.96c18.64,56.12-29.51,133.8-50.27,159.79-2.83,3.54,16.54,9.17,21,8.33,23.95-4.51,76.4-9.83,80.56,4.16,5.27,17.73-47.38,18.68-68.9,18.68-1.03,0-1.01.96,0,1.17,22.23,4.55,72.72,29.7,62.67,46.67-10.67,18-56-16-74.33-28.33-1.98-1.34-4.75.33-3.44,2.33,9.63,14.75,43.25,51.11,20.44,59.67-20.44,7.67-66.86-78.36-66.86-78.36,0,0-21.18-22.09-46.84,10.58" style="fill: #63e57f; stroke: #32703d; stroke-linecap: round; stroke-miterlimit: 10; stroke-width: 7.5px;"/>
  </g>
  <g id="o" data-name="Right Foreleg">
    <path d="M346.75,474.14s12.7,111.84-2.94,142.51-63.5,48-46.22,56,54.67-28.62,54.67-28.62c0,0-9.44,67.85,7.56,65.51s17.78-62.18,17.78-62.18c0,0,21.11,49.4,39.11,45.73,18-3.67-24.44-66.67-24.44-66.67,0,0,7.78-82.56,24.78-87.22" style="fill: #63e57f; stroke: #32703d; stroke-linecap: round; stroke-miterlimit: 10; stroke-width: 7.5px;"/>
  </g>
  <g id="p" data-name="Left Hindleg">
    <path d="M170.6,483.65s-84.47-165.09-115.19-72.63c-18.64,56.12,29.51,133.8,50.27,159.79,2.83,3.54-16.54,9.17-21,8.33-23.95-4.51-76.4-9.83-80.56,4.16-5.27,17.73,47.38,18.68,68.9,18.68,1.03,0,1.01.96,0,1.17-22.23,4.55-72.72,29.7-62.67,46.67,10.67,18,56-16,74.33-28.33,1.98-1.34,4.75.33,3.44,2.33-9.63,14.75-43.25,51.11-20.44,59.67,20.44,7.67,66.86-78.36,66.86-78.36,0,0,21.18-22.09,46.84,10.58" style="fill: #63e57f; stroke: #32703d; stroke-linecap: round; stroke-miterlimit: 10; stroke-width: 7.5px;"/>
  </g>
  <g id="q" data-name="Left Foreleg">
    <path d="M237.78,474.14s-12.7,111.84,2.94,142.51c15.65,30.67,63.5,48,46.22,56-17.28,8-54.67-28.62-54.67-28.62,0,0,9.44,67.85-7.56,65.51-17-2.33-17.78-62.18-17.78-62.18,0,0-21.11,49.4-39.11,45.73-18-3.67,24.44-66.67,24.44-66.67,0,0-7.78-82.56-24.78-87.22" style="fill: #63e57f; stroke: #32703d; stroke-linecap: round; stroke-miterlimit: 10; stroke-width: 7.5px;"/>
  </g>
</svg>