<?xml version="1.0" encoding="UTF-8"?>
<svg id="a" data-name="Layer 9" xmlns="http://www.w3.org/2000/svg" width="839.36" height="424.62" viewBox="0 0 839.36 424.62">
  <path d="M820.95,229.21c0,11.11-2.02,22.01-5.89,32.61-6.65,18.2-29.17,28.49-43.72,46.65-32,39.96-112.81,76.61-199.91,95.89-11.49,2.54-158.95-138.87-170.99-136.8-12.54,2.16,116.63,145.22,103.56,146.83-35.2,4.34-69.87,10.23-108.05,10.23-79.95,0-148.07-12.83-211.95-30.48-34.1-9.42-59.67-37.37-86.67-50.67C26.44,308.56,0,280.75,0,229.21,0,121.29,161.22,33.8,395.95,33.8c118.78,0,207.6,29.62,284.72,65.74,22.65,10.61,61.26,15.18,78.21,27.94,39.38,29.63,62.07,64.46,62.07,101.73Z" style="opacity: .3;"/>
  <path d="M839.36,195.41c0,11.11-2.02,22.01-5.89,32.61-6.65,18.2-29.17,28.49-43.72,46.65-32,39.96-112.81,76.61-199.91,95.89-11.49,2.54-158.95-138.87-170.99-136.8-12.54,2.16,116.63,145.22,103.56,146.83-35.2,4.34-69.87,10.23-108.05,10.23-79.95,0-148.07-12.83-211.95-30.48-34.1-9.42-59.67-37.37-86.67-50.67-70.9-34.91-97.33-62.73-97.33-114.26C18.41,87.49,179.64,0,414.36,0c118.78,0,207.6,29.62,284.72,65.74,22.65,10.61,61.26,15.18,78.21,27.94,39.38,29.63,62.07,64.46,62.07,101.73Z" style="fill: #31845e;"/>
  <path d="M833.84,185.18c0,11.11-2.02,22.01-5.89,32.61-6.65,18.2-29.17,28.49-43.72,46.65-32,39.96-104.17,77.63-191.27,96.91-11.49,2.54-166.34-140.58-178.38-138.51-12.54,2.16,117.71,149.48,104.65,151.09-35.2,4.34-72.2,6.66-110.38,6.66-79.95,0-137.23-18.05-201.1-35.7-34.1-9.42-61.77-38.7-88.77-52-70.9-34.91-88-65.8-88-117.33C30.97,67.64,191.64,10.23,426.36,10.23c118.78,0,190.09,9.17,267.21,45.28,22.65,10.61,61.26,15.18,78.21,27.94,39.38,29.63,62.07,64.46,62.07,101.73Z" style="fill: #4aba68;"/>
  <g>
    <ellipse cx="258.06" cy="228.69" rx="106.06" ry="5.32" transform="translate(-70.16 123.03) rotate(-23.7)" style="fill: #31845e;"/>
    <path d="M252.98,218.28c-53.64,23.55-93.76,50.42-92.58,53.11,1.18,2.69,43.22-19.83,96.86-43.37,53.64-23.55,98.48-39.29,97.3-41.98s-47.94,8.7-101.57,32.25Z" style="fill: #64d874;"/>
  </g>
  <g>
    <ellipse cx="673.48" cy="229.21" rx="5.32" ry="106.06" transform="translate(328.87 851.6) rotate(-79.82)" style="fill: #31845e;"/>
    <path d="M675.07,217.74c-57.66-10.35-105.95-10.41-106.47-7.52-.52,2.89,46.93,7.64,104.59,17.99,57.66,10.35,103.66,22.28,104.18,19.39s-44.64-19.5-102.3-29.85Z" style="fill: #64d874;"/>
  </g>
</svg>